<svg width="1049" height="65" viewBox="0 0 1049 65" fill="none" xmlns="http://www.w3.org/2000/svg">
<path d="M918.119 64.6952H1049C1049 32.1952 942.533 40.028 918.119 40.028C893.705 40.028 819.803 35.4155 779.626 21.6014C752 12.1027 677.493 1.69513 662.747 1.69515C648 1.69517 574.987 -8.61109 524.187 21.6014C473.386 -8.61109 393.846 1.69515 377.891 1.69517C361.937 1.69519 294 10.2505 260.998 21.6014C220.835 35.4155 146.933 40.028 122.519 40.028C98.1055 40.028 0 30.1952 0 64.6952H122.519C240.386 64.6952 299.319 64.6952 377.891 64.6952C412.102 64.6952 451.198 64.6936 507 64.6952C562.802 64.6967 550 64.6952 550 64.6952C612.985 64.6952 628.521 64.6952 662.747 64.6952C741.305 64.6952 800.254 64.6952 918.119 64.6952Z" fill=""/>
</svg>
