<svg width="375" height="375" viewBox="0 0 375 375" fill="none" xmlns="http://www.w3.org/2000/svg">
<path d="M187.306 0C209.228 0.000388351 221.924 24.6065 230.453 51.4902C255.244 32.4961 283.305 16.6066 302.532 30.9609C322.082 45.5577 314.159 77.4679 302.82 106.504C334.106 105.289 366.069 108.606 373.311 131.515C379.866 152.251 360.681 171.342 337.666 187.221C360.681 203.099 379.865 222.19 373.31 242.928C366.068 265.836 334.106 269.153 302.819 267.938C314.159 296.975 322.082 328.885 302.533 343.481C283.307 357.836 255.245 341.946 230.454 322.952C221.925 349.836 209.229 374.442 187.305 374.442C165.383 374.442 152.687 349.836 144.158 322.952C119.367 341.946 91.3061 357.836 72.0798 343.481C52.5298 328.885 60.4514 296.974 71.7907 267.938C40.5048 269.153 8.54311 265.836 1.30145 242.928C-5.25327 222.191 13.93 203.1 36.945 187.222C13.93 171.343 -5.25365 152.252 1.30145 131.515C8.54337 108.606 40.5056 105.289 71.7917 106.504C60.4521 77.468 52.5304 45.5573 72.0798 30.9609C91.3056 16.6068 119.366 32.4956 144.157 51.4893C152.686 24.6054 165.383 0 187.306 0Z" fill="#F4E285"/>
<path d="M296.918 148.611L275.219 163.261L268.895 153.895C267.808 152.284 267.15 150.677 266.921 149.073C266.691 147.47 266.901 145.96 267.55 144.545C268.199 143.13 269.293 141.903 270.833 140.863C272.387 139.814 273.931 139.276 275.465 139.248C276.994 139.213 278.45 139.633 279.834 140.509C281.212 141.378 282.459 142.639 283.575 144.292L287.352 149.886L282.775 152.977L279.799 148.569C279.332 147.877 278.849 147.344 278.35 146.971C277.84 146.596 277.306 146.406 276.748 146.403C276.185 146.392 275.597 146.594 274.982 147.009C274.36 147.428 273.946 147.903 273.739 148.434C273.52 148.963 273.485 149.536 273.635 150.154C273.774 150.771 274.077 151.425 274.544 152.117L275.946 154.194L292.941 142.72L296.918 148.611ZM278.374 142.62L284.672 130.471L288.992 136.871L282.609 148.893L278.374 142.62ZM263.14 100.053L251.357 123.433L234.507 114.941L237.084 109.826L247.587 115.12L249.612 111.101L239.977 106.245L242.555 101.131L252.19 105.987L254.215 101.968L243.758 96.698L246.336 91.5836L263.14 100.053ZM211.362 74.8656L212.281 101.031L200.987 101.428C199.045 101.496 197.333 101.202 195.852 100.547C194.371 99.8908 193.202 98.9127 192.346 97.6124C191.491 96.3121 191.03 94.7336 190.965 92.8768C190.899 91.0029 191.261 89.4083 192.05 88.0928C192.831 86.7777 193.96 85.7658 195.436 85.0573C196.903 84.3491 198.634 83.96 200.627 83.89L207.373 83.6531L207.567 89.1724L202.252 89.3591C201.417 89.3884 200.709 89.5156 200.129 89.7406C199.54 89.9745 199.096 90.327 198.797 90.798C198.49 91.2693 198.349 91.8755 198.375 92.6165C198.401 93.366 198.585 93.9693 198.925 94.4264C199.257 94.8923 199.724 95.2255 200.328 95.4261C200.924 95.6354 201.64 95.7254 202.474 95.6961L204.978 95.6081L204.259 75.1151L211.362 74.8656ZM196.453 87.4137L189.489 75.6339L197.206 75.3628L204.016 87.148L196.453 87.4137ZM152.228 77.7571L165.654 100.235L149.454 109.911L146.518 104.994L156.615 98.9625L154.307 95.0992L145.044 100.632L142.107 95.7151L151.371 90.1822L149.063 86.3189L139.01 92.3237L136.073 87.4068L152.228 77.7571ZM99.9997 113.971L103.677 107.24L122.51 127.377L117.851 135.903L90.7318 130.934L94.4095 124.203L113.804 128.273L113.902 128.093L99.9997 113.971ZM109.751 117.667L102.837 130.322L98.1698 127.772L105.084 115.117L109.751 117.667ZM74.2213 174.23L73.5947 164.176L99.7258 162.547L100.346 172.499C100.514 175.187 100.135 177.542 99.2109 179.564C98.2956 181.593 96.8929 183.201 95.0027 184.386C93.1216 185.579 90.82 186.261 88.098 186.43C85.376 186.6 83.0037 186.214 80.981 185.273C78.9668 184.331 77.3759 182.919 76.2082 181.036C75.049 179.153 74.3867 176.884 74.2213 174.23ZM80.0593 170.894L80.2278 173.599C80.3084 174.892 80.5855 175.981 81.059 176.865C81.5331 177.758 82.2953 178.411 83.3458 178.823C84.3967 179.245 85.8324 179.398 87.6527 179.285C89.473 179.172 90.8782 178.836 91.8682 178.279C92.8587 177.731 93.533 176.972 93.8909 176.001C94.2494 175.04 94.3862 173.878 94.3014 172.517L94.1456 170.017L80.0593 170.894ZM78.2784 225.367L99.8465 210.525L106.253 219.834C107.355 221.435 108.027 223.036 108.271 224.638C108.514 226.24 108.318 227.751 107.682 229.171C107.045 230.592 105.962 231.829 104.431 232.882C102.887 233.945 101.348 234.498 99.8141 234.539C98.2853 234.588 96.8254 234.18 95.4344 233.316C94.0483 232.46 92.7899 231.21 91.6593 229.567L87.8327 224.007L92.3822 220.876L95.3971 225.257C95.8706 225.945 96.3583 226.473 96.8602 226.842C97.3739 227.212 97.9098 227.397 98.4677 227.396C99.0304 227.402 99.6172 227.195 100.228 226.774C100.846 226.349 101.256 225.87 101.459 225.338C101.673 224.807 101.702 224.234 101.547 223.617C101.403 223.002 101.094 222.35 100.621 221.662L99.2002 219.598L82.308 231.223L78.2784 225.367ZM96.8747 231.192L90.686 243.397L86.3085 237.036L92.5843 224.958L96.8747 231.192ZM112.482 273.615L124.058 250.132L140.983 258.475L138.45 263.612L127.901 258.412L125.911 262.448L135.589 267.219L133.057 272.356L123.379 267.585L121.389 271.621L131.893 276.799L129.36 281.936L112.482 273.615ZM164.481 298.344L163.335 272.187L174.626 271.692C176.567 271.607 178.281 271.886 179.768 272.529C181.255 273.172 182.432 274.14 183.299 275.433C184.166 276.726 184.64 278.3 184.721 280.157C184.803 282.03 184.455 283.627 183.677 284.95C182.908 286.272 181.788 287.293 180.318 288.014C178.857 288.735 177.13 289.139 175.137 289.227L168.394 289.522L168.152 284.004L173.465 283.772C174.3 283.735 175.006 283.602 175.585 283.372C176.172 283.133 176.612 282.777 176.907 282.303C177.211 281.829 177.346 281.222 177.314 280.481C177.281 279.732 177.092 279.13 176.748 278.676C176.413 278.213 175.942 277.884 175.336 277.688C174.738 277.484 174.022 277.4 173.188 277.437L170.685 277.547L171.582 298.033L164.481 298.344ZM179.281 285.667L186.346 297.386L178.632 297.724L171.72 285.998L179.281 285.667ZM223.591 294.939L209.952 272.59L226.059 262.761L229.043 267.65L219.003 273.776L221.347 277.617L230.558 271.997L233.541 276.886L224.331 282.506L226.675 286.348L236.671 280.248L239.654 285.136L223.591 294.939ZM275.48 258.232L271.862 264.995L252.85 245.027L257.433 236.46L284.596 241.187L280.978 247.95L261.548 244.054L261.451 244.234L275.48 258.232ZM265.696 254.623L272.496 241.907L277.186 244.415L270.385 257.131L265.696 254.623ZM302.574 197.758L301.701 207.794L275.618 205.527L276.481 195.593C276.714 192.91 277.438 190.637 278.652 188.775C279.858 186.904 281.484 185.522 283.529 184.631C285.567 183.73 287.944 183.398 290.661 183.634C293.378 183.87 295.667 184.604 297.527 185.835C299.379 187.065 300.743 188.698 301.619 190.733C302.485 192.767 302.804 195.109 302.574 197.758ZM296.305 200.19L296.54 197.49C296.652 196.2 296.54 195.082 296.203 194.137C295.866 193.184 295.209 192.426 294.232 191.862C293.255 191.289 291.858 190.924 290.041 190.766C288.224 190.608 286.785 190.731 285.723 191.135C284.662 191.53 283.883 192.181 283.385 193.088C282.887 193.985 282.58 195.114 282.462 196.472L282.245 198.968L296.305 200.19Z" fill="#BC4B51"/>
<path d="M216.194 202.9L220.776 210.94C221.105 211.518 220.914 212.019 220.772 212.266C220.628 212.513 220.29 212.927 219.627 212.927H193.164V204.815L181.111 216.909L193.164 229V220.89H219.627C222.967 220.89 225.962 219.16 227.639 216.263C229.315 213.365 229.327 209.899 227.67 206.99L223.088 198.949L216.194 202.9ZM151.388 179.873L158.391 183.929L145.159 206.913C143.489 209.814 143.485 213.28 145.148 216.185C146.812 219.089 149.8 220.833 153.14 220.848L162.373 220.889L162.408 212.926L153.175 212.885C152.512 212.882 152.175 212.466 152.033 212.219C151.891 211.971 151.704 211.47 152.035 210.895L165.267 187.909L172.272 191.965L167.855 175.45L151.388 179.873ZM186.758 144C183.427 144 180.438 145.722 178.759 148.609L174.105 156.608L180.964 160.62L185.616 152.621C185.951 152.047 186.481 151.965 186.763 151.963C187.047 151.964 187.574 152.051 187.905 152.626L201.137 175.611L194.133 179.666L210.602 184.088L215.016 167.574L208.013 171.63L194.78 148.645C193.11 145.744 190.12 144.008 186.78 144H186.758Z" fill="#BC4B51"/>
</svg>
