<svg width="400" height="400" viewBox="0 0 400 400" fill="none" xmlns="http://www.w3.org/2000/svg">
<circle cx="200" cy="200" r="200" fill=""/>
<g clip-path="url(#clip0_1_112)">
<path d="M279.409 108.91C276.831 107.082 273.518 106.611 270.533 107.66L159.531 146.508C145.535 145.844 136.001 142.009 129.432 137.732C127.454 136.446 127.025 135.689 127.025 135.689C125.839 134.504 125.382 132.861 125.718 131.169C126.061 129.476 127.268 128.091 128.896 127.52L228.236 92.7567C229.729 92.2284 231.385 92.4637 232.67 93.3778C232.785 93.4637 232.885 93.578 232.992 93.6634L240.261 91.0355C239.812 88.5433 238.461 86.2865 236.355 84.8011C233.777 82.9657 230.463 82.5018 227.479 83.5443L123.011 120.107C119.098 121.478 116.477 125.177 116.477 129.319V131.868V292.886C116.477 292.886 123.361 315.28 159.531 317.001L270.447 278.182C278.273 275.44 283.522 268.049 283.522 259.751V116.872C283.522 113.709 281.987 110.738 279.409 108.91Z" fill="white"/>
<path d="M139.451 131.561L143.856 133.661L244.225 98.5267L239.812 96.4271L139.451 131.561Z" fill="white"/>
<path d="M155.975 139.374L256.215 104.283L251.83 102.176L151.569 137.274L155.975 139.374Z" fill="white"/>
<path class="leaf" d="M173.704 181.182C174.061 181.091 194.31 175.943 201.451 174.153C202.404 173.914 203.469 173.636 204.603 173.339C209.73 171.998 216.83 170.139 223.77 169.356C232.22 168.402 238.721 169.195 243.493 171.95C255.305 178.77 259.366 193.926 252.546 205.739C250.191 209.818 246.745 213.122 242.585 215.292C240.851 216.195 239.027 216.886 237.151 217.357C237.038 217.332 236.925 217.31 236.813 217.291C236.35 217.214 235.889 217.192 235.491 217.273C235.12 217.35 234.79 217.522 234.578 217.836L234.384 217.887C234.28 217.901 234.175 217.917 234.07 217.929L233.806 217.96L233.838 218.034L233.458 218.136L233.418 218.215C233.353 218.343 233.343 218.488 233.359 218.626C233.374 218.766 233.416 218.917 233.473 219.069C233.587 219.373 233.772 219.715 233.965 220.048C234.154 220.373 234.373 220.724 234.537 221.002C234.712 221.298 234.83 221.523 234.867 221.658C234.931 221.897 235.073 222.108 235.251 222.295C235.603 223.799 235.817 225.339 235.884 226.897C236.086 231.585 234.946 236.221 232.591 240.301C225.771 252.113 210.615 256.174 198.802 249.354C194.031 246.599 190.095 241.365 186.695 233.571C183.903 227.169 181.963 220.091 180.561 214.98C180.251 213.85 179.959 212.788 179.69 211.843C177.682 204.813 172.08 184.93 171.906 184.311L171.894 184.267C171.722 183.624 171.813 182.938 172.146 182.361C172.462 181.812 172.973 181.405 173.574 181.217L173.575 181.218L173.704 181.182ZM234.459 218.28C235.365 218.158 236.264 217.987 237.152 217.768C237.792 217.918 238.435 218.161 238.923 218.393L239.161 218.512L239.272 218.573L239.272 218.574C239.775 218.871 251.428 225.818 257.438 237.273L257.438 237.274L257.722 237.825C258.361 239.099 257.908 240.633 256.739 241.258C255.573 241.881 254.103 241.381 253.464 240.109C250.883 234.97 246.815 230.714 243.338 227.716C241.605 226.223 240.032 225.053 238.888 224.254C238.316 223.855 237.851 223.548 237.529 223.34C237.367 223.237 237.242 223.158 237.155 223.105C237.077 223.057 237.032 223.03 237.023 223.025L237.022 223.024C236.683 222.824 236.281 222.612 235.932 222.358C235.812 222.271 235.705 222.182 235.612 222.093C235.302 220.798 234.891 219.53 234.382 218.301L234.459 218.28ZM177.495 185.614C179.123 191.389 182.941 204.925 184.522 210.463C184.8 211.435 185.095 212.515 185.407 213.651C186.78 218.657 188.597 225.273 191.184 231.285C193.789 237.336 197.09 242.564 201.315 245.003C210.727 250.436 222.806 247.2 228.24 237.789C230.912 233.16 231.563 227.828 230.237 222.88C229.757 221.089 229.014 219.349 228.016 217.707L228.091 217.56L228.075 217.551L228.025 217.648L228.003 217.686C227.957 217.611 227.914 217.534 227.867 217.459L227.84 217.418L227.797 217.393L209.244 206.68C208.644 206.334 208.239 205.775 208.073 205.156C207.907 204.536 207.978 203.849 208.325 203.249C208.997 202.085 210.459 201.662 211.642 202.266L211.761 202.331L230.306 213.038L230.349 213.063L230.399 213.065C237.735 213.337 244.509 209.61 248.195 203.225C253.628 193.814 250.391 181.735 240.98 176.301C236.755 173.862 230.577 173.618 224.035 174.387C217.535 175.152 210.896 176.887 205.875 178.201L204.213 178.634C203.678 178.773 203.162 178.905 202.672 179.028C197.085 180.428 183.452 183.889 177.637 185.367L177.439 185.417L177.495 185.614ZM233.994 218.404C234.307 219.156 234.583 219.921 234.821 220.699C234.659 220.427 234.484 220.147 234.31 219.847C234.118 219.518 233.948 219.2 233.846 218.929C233.796 218.794 233.765 218.678 233.755 218.583C233.749 218.536 233.75 218.499 233.753 218.469L233.994 218.404ZM235.572 217.663C235.693 217.638 235.824 217.628 235.964 217.624C235.742 217.668 235.519 217.71 235.296 217.748C235.379 217.713 235.471 217.684 235.572 217.663Z" stroke-width="5" stroke="" fill=""/>
</g>
<defs>
<clipPath id="clip0_1_112">
<rect width="234" height="234" fill="white" transform="translate(83 83)"/>
</clipPath>
</defs>
</svg>
